<svg width="129" height="129" viewBox="0 0 129 129" fill="none" xmlns="http://www.w3.org/2000/svg">
<path d="M112.101 36.614L38.4889 79.114" stroke="#EEEEEE" stroke-width="1.55"/>
<rect x="9.20066" y="9.20063" width="110.45" height="110.45" rx="55.225" stroke="#EEEEEE" stroke-width="1.55"/>
<path d="M102.945 65.8975L111.132 66.758L110.969 68.3094L104.13 67.5907L103.699 71.6961L102.35 71.5544L102.945 65.8975Z" fill="#EEEEEE"/>
<path d="M95.2231 87.3572L101.341 92.8654L97.0448 97.6364L96.0549 96.7452L99.3069 93.1335L97.7998 91.7765L94.9011 94.9958L93.9113 94.1045L96.81 90.8852L95.1691 89.4078L91.8689 93.0729L90.8791 92.1817L95.2231 87.3572Z" fill="#EEEEEE"/>
<path d="M76.6583 100.61L75.2358 109.328L73.3108 109.737L68.4536 102.354L70.1086 102.002L71.1184 103.578L74.8041 102.795L75.0854 100.944L76.6583 100.61ZM74.5973 104.188L71.8859 104.765L73.1598 106.776C73.2078 106.848 73.2677 106.937 73.3396 107.044C73.4053 107.161 73.4766 107.285 73.5535 107.416C73.6321 107.555 73.7106 107.693 73.7892 107.832C73.8677 107.971 73.939 108.095 74.0031 108.204L74.0618 108.191C74.0755 108.025 74.0959 107.832 74.1231 107.614C74.1425 107.397 74.1643 107.192 74.1887 106.999C74.213 106.806 74.2339 106.654 74.2514 106.544L74.5973 104.188Z" fill="#EEEEEE"/>
<path d="M52.4617 100.357L49.1135 107.877L45.156 106.115C44.6006 105.868 44.1824 105.568 43.9016 105.215C43.6208 104.863 43.4671 104.47 43.4406 104.038C43.4141 103.606 43.5066 103.152 43.7181 102.677C43.9361 102.188 44.2393 101.802 44.6278 101.519C45.013 101.244 45.4598 101.106 45.9683 101.105L45.7636 97.3749L47.3203 98.068L47.457 101.478L49.792 102.518L51.0366 99.7226L52.4617 100.357ZM49.26 103.713L46.8372 102.634C46.4718 102.472 46.1433 102.452 45.8516 102.576C45.5599 102.701 45.3311 102.949 45.1651 103.322C45.0578 103.563 45.0121 103.783 45.0282 103.983C45.0411 104.19 45.1121 104.375 45.2411 104.538C45.3701 104.7 45.5589 104.837 45.8074 104.947L48.2301 106.026L49.26 103.713Z" fill="#EEEEEE"/>
<path d="M33.519 86.0705L26.3899 90.1865L25.6459 88.8979L28.0968 83.4229C28.1183 83.3643 28.1532 83.2887 28.2014 83.1962C28.2427 83.1077 28.286 83.0227 28.3313 82.9411C28.3766 82.8595 28.416 82.7998 28.4496 82.762L28.4196 82.71C28.3226 82.766 28.229 82.82 28.139 82.872C28.0489 82.924 27.9588 82.976 27.8688 83.028L23.6599 85.458L22.9099 84.159L30.039 80.043L30.777 81.3212L28.3009 86.8246C28.2498 86.928 28.1874 87.0518 28.1136 87.196C28.0289 87.3373 27.9703 87.4358 27.9378 87.4915L27.9678 87.5435C28.0578 87.4915 28.1514 87.4375 28.2484 87.3815C28.3384 87.3295 28.432 87.2755 28.5289 87.2195L32.769 84.7715L33.519 86.0705Z" fill="#EEEEEE"/>
<path d="M26.5802 64.144L18.3933 63.2835L18.6505 60.837L23.3448 60.0272C23.5089 59.9962 23.693 59.9673 23.8969 59.9405C24.1008 59.9137 24.2964 59.89 24.4835 59.8694C24.6716 59.8409 24.8344 59.8218 24.9722 59.8122L24.9822 59.7167C24.8646 59.6882 24.7199 59.6489 24.5482 59.5987C24.3765 59.5485 24.1933 59.493 23.9986 59.4323C23.7967 59.3628 23.6033 59.2902 23.4182 59.2145L19.0067 57.4477L19.2613 55.025L27.4482 55.8855L27.2852 57.4369L23.144 57.0017C22.778 56.9632 22.4124 56.9208 22.0473 56.8743C21.6821 56.8279 21.3687 56.7869 21.107 56.7514C20.8461 56.7079 20.6918 56.6836 20.644 56.6786L20.634 56.7741C20.7039 56.7975 20.8549 56.8536 21.0869 56.9423C21.3189 57.0311 21.5704 57.1259 21.8413 57.2267C22.1122 57.3276 22.3442 57.4164 22.5373 57.493L27.0857 59.3345L26.9352 60.7666L22.1152 61.6235C21.9431 61.6536 21.7384 61.6884 21.5009 61.7278C21.2564 61.7584 21.0075 61.7926 20.7541 61.8303C20.5016 61.8601 20.2814 61.8892 20.0934 61.9177L20.0834 62.0132C20.299 62.0278 20.5584 62.0471 20.8616 62.0709C21.1568 62.0939 21.46 62.1177 21.7711 62.1423C22.0743 62.1662 22.3492 62.191 22.5958 62.217L26.737 62.6522L26.5802 64.144Z" fill="#EEEEEE"/>
<path d="M36.8079 38.6752C36.2351 39.3113 35.627 39.7595 34.9836 40.0199C34.3342 40.2748 33.6622 40.3157 32.9677 40.1425C32.2786 39.9634 31.5773 39.5526 30.8639 38.9102C30.1445 38.2625 29.6627 37.608 29.4185 36.9467C29.1736 36.2741 29.147 35.6043 29.3386 34.9371C29.5243 34.2646 29.9035 33.6103 30.4763 32.9742C31.0544 32.3321 31.6655 31.8866 32.3096 31.6376C32.953 31.3773 33.6193 31.3367 34.3085 31.5158C34.997 31.6837 35.701 32.0914 36.4203 32.7392C37.1338 33.3815 37.6129 34.039 37.8577 34.7116C38.1079 35.3782 38.1402 36.0478 37.9545 36.7203C37.7682 37.3815 37.386 38.0331 36.8079 38.6752ZM35.827 37.7919C36.1053 37.4828 36.3043 37.1721 36.4239 36.86C36.5488 36.5419 36.5974 36.225 36.5695 35.9092C36.5357 35.5881 36.4284 35.2708 36.2477 34.9574C36.0611 34.6386 35.7983 34.3267 35.4594 34.0216L35.2632 33.8449C34.9184 33.5344 34.5777 33.3031 34.2412 33.1508C33.9047 32.9985 33.5779 32.9249 33.261 32.9302C32.9381 32.9302 32.625 33.0089 32.3217 33.1664C32.0238 33.318 31.7356 33.5483 31.4573 33.8575C31.1789 34.1666 30.9773 34.4802 30.8523 34.7983C30.7327 35.1105 30.6898 35.4271 30.7237 35.7482C30.7515 36.064 30.8588 36.3813 31.0454 36.7C31.2374 37.0128 31.5058 37.3245 31.8507 37.635L32.0469 37.8116C32.3857 38.1167 32.7208 38.3484 33.0519 38.5067C33.3825 38.6536 33.7093 38.7271 34.0321 38.7272C34.3491 38.7219 34.6565 38.6435 34.9545 38.4919C35.2578 38.3344 35.5486 38.1011 35.827 37.7919Z" fill="#EEEEEE"/>
<path d="M53.6194 27.6765L51.9079 19.6244L56.1452 18.7238C56.7399 18.5973 57.2545 18.5943 57.689 18.7146C58.1235 18.8349 58.4785 19.062 58.754 19.396C59.0295 19.7301 59.2213 20.1514 59.3294 20.66C59.4408 21.1843 59.4224 21.6749 59.2741 22.1317C59.1242 22.5807 58.8439 22.9551 58.4333 23.255L60.7912 26.1521L59.1244 26.5064L57.0092 23.8276L54.5091 24.3591L55.1453 27.3522L53.6194 27.6765ZM54.2372 23.0796L56.8312 22.5283C57.2225 22.4451 57.4996 22.2676 57.6627 21.9958C57.8257 21.7239 57.8648 21.3885 57.78 20.9894C57.7251 20.7311 57.6324 20.5259 57.5019 20.3737C57.3697 20.2137 57.2037 20.1059 57.0038 20.0502C56.8038 19.9946 56.5708 19.995 56.3048 20.0516L53.7107 20.603L54.2372 23.0796Z" fill="#EEEEEE"/>
<path d="M77.481 28.1623L80.8293 20.642L86.6942 23.2533L86.1524 24.4701L81.7126 22.4934L80.8877 24.346L84.8452 26.108L84.3035 27.3249L80.346 25.5629L79.4479 27.58L83.9535 29.586L83.4117 30.8029L77.481 28.1623Z" fill="#EEEEEE"/>
</svg>
