<svg width="64" height="65" viewBox="0 0 64 65" fill="none" xmlns="http://www.w3.org/2000/svg">
<mask id="mask0_1101_472" style="mask-type:alpha" maskUnits="userSpaceOnUse" x="0" y="0" width="64" height="65">
<rect y="0.356934" width="64" height="64" fill="#EEEEEE"/>
</mask>
<g mask="url(#mask0_1101_472)">
<path d="M32 41.9569L41.6334 32.3569L32 22.7236L29.3334 25.4236L34.3334 30.4236H22.1V34.2569H34.3334L29.3334 39.2902L32 41.9569ZM32.0043 58.6902C28.4056 58.6902 25.0027 57.9955 21.7957 56.606C18.5886 55.2166 15.7931 53.3277 13.4092 50.9394C11.0253 48.5511 9.13891 45.7564 7.75002 42.5554C6.36113 39.3543 5.66669 35.9563 5.66669 32.3612C5.66669 28.718 6.36142 25.2929 7.75089 22.0859C9.14035 18.8788 11.0292 16.0889 13.4176 13.7161C15.8059 11.3433 18.6005 9.468 21.8016 8.09023C25.0026 6.71245 28.4006 6.02356 31.9958 6.02356C35.6389 6.02356 39.0641 6.71538 42.2714 8.09903C45.4788 9.48263 48.2687 11.3604 50.6412 13.7324C53.0138 16.1043 54.8889 18.8907 56.2667 22.0918C57.6445 25.2928 58.3334 28.7131 58.3334 32.3526C58.3334 35.9513 57.6442 39.3542 56.2658 42.5612C54.8875 45.7683 53.0097 48.5638 50.6325 50.9477C48.2553 53.3316 45.4662 55.218 42.2652 56.6069C39.0641 57.9958 35.6438 58.6902 32.0043 58.6902Z" fill="#EEEEEE"/>
</g>
</svg>
