<svg width="428" height="428" viewBox="0 0 428 428" fill="none" xmlns="http://www.w3.org/2000/svg">
<path d="M199.348 384.806L306.015 176.806H231.348V43.4731L124.682 251.473H199.348V384.806ZM214.282 427.473C184.77 427.473 157.037 421.873 131.082 410.673C105.126 399.473 82.5482 384.273 63.3482 365.073C44.1482 345.873 28.9482 323.295 17.7482 297.34C6.54824 271.384 0.948242 243.651 0.948242 214.14C0.948242 184.629 6.54824 156.895 17.7482 130.94C28.9482 104.984 44.1482 82.4064 63.3482 63.2064C82.5482 44.0064 105.126 28.8064 131.082 17.6064C157.037 6.40643 184.77 0.806427 214.282 0.806427C243.793 0.806427 271.526 6.40643 297.482 17.6064C323.437 28.8064 346.015 44.0064 365.215 63.2064C384.415 82.4064 399.615 104.984 410.815 130.94C422.015 156.895 427.615 184.629 427.615 214.14C427.615 243.651 422.015 271.384 410.815 297.34C399.615 323.295 384.415 345.873 365.215 365.073C346.015 384.273 323.437 399.473 297.482 410.673C271.526 421.873 243.793 427.473 214.282 427.473Z" fill="#050505"/>
</svg>
